# xmcd
#
# Track frame offsets: 
#        150
#        12285
#        24990
#        37120
#        49320
#        58995
#        73232
#        85929
#        102415
#        118650
#
# Disc length: 1744 seconds
#
# Revision: 0
# Processed by: cddbd v1.4PL0 Copyright (c) Steve Scherf et al.
# Submitted via: ExactAudioCopy v0.90b3
#
DISCID=8d06ce0a
DTITLE=Merle Haggard - A Living Legend
DYEAR=1900
DGENRE=Country
TTITLE0=Okie From Muskogee
TTITLE1=The Fightin' Side Of Me
TTITLE2=I Take A Lot Of Pride In What I Am
TTITLE3=Workin' Man Blues
TTITLE4=Mama Tried
TTITLE5=Branded Man
TTITLE6=Sing Me Back Home
TTITLE7=Daddy Frank
TTITLE8=Hungry Eyes
TTITLE9=The Bottle Let Me Down
EXTD=
EXTT0=
EXTT1=
EXTT2=
EXTT3=
EXTT4=
EXTT5=
EXTT6=
EXTT7=
EXTT8=
EXTT9=
PLAYORDER=
